<svg xmlns="http://www.w3.org/2000/svg" xmlns:xlink="http://www.w3.org/1999/xlink" width="264" height="280" xmlns:v="https://vecta.io/nano"><defs><path d="M124 144.61V163h4c39.765 0 72 32.235 72 72v9H0v-9c0-39.765 32.235-72 72-72h4v-18.39c-17.237-8.19-29.628-24.924-31.695-44.73C38.48 99.058 34 94.052 34 88V74c0-5.946 4.325-10.882 10-11.834V56c0-30.928 25.072-56 56-56h0c30.928 0 56 25.072 56 56v6.166c5.675.952 10 5.888 10 11.834v14c0 6.052-4.48 11.058-10.305 11.88-2.067 19.806-14.457 36.54-31.695 44.73z" id="A"/></defs><g mask="url(#mask-4)" fill="none" fill-rule="evenodd"><g transform="translate(32 36)"><mask id="B" fill="#fff"><use xlink:href="#A"/></mask><use fill="#d0c6ac" xlink:href="#A"/><g mask="url(#B)" fill="#ffdbb4"><path d="M-32 0h264v244H-32z"/></g><path d="M156 79v23c0 30.928-25.072 56-56 56s-56-25.072-56-56v-8c0 30.928 25.072 56 56 56s56-25.072 56-56V79z" fill-opacity=".1" fill="#000" mask="url(#B)"/></g><g transform="translate(0 170)"><defs><path d="M108 13.07c-17.92 2.005-31.72 7.48-31.996 21.574C50.146 45.568 32 71.165 32 101h0v9h200v-9c0-29.835-18.146-55.43-44.004-66.355C187.72 20.552 173.92 15.076 156 13.07V32c0 13.255-10.745 24-24 24h0c-13.255 0-24-10.745-24-24V13.07z" id="C"/></defs><mask id="D" fill="#fff"><use xlink:href="#C"/></mask><use fill="#b7c1db" xlink:href="#C"/><g mask="url(#D)" fill="#6246ea"><path d="M0 0h264v110H0z"/></g><path d="M102 61.74V110h-7V58.15a64.54 64.54 0 0 0 7 3.589zm67-3.59V98.5a3.5 3.5 0 1 1-7 0V61.74a64.54 64.54 0 0 0 7-3.589z" fill="#f4f4f4" mask="url(#D)"/><path d="M90.96 12.724C75.91 15.57 65.5 21.243 65.5 32.308 65.5 52.02 98.538 68 132 68s66.5-15.98 66.5-35.692c0-11.065-10.41-16.737-25.46-19.583 9.085 3.35 14.96 8.982 14.96 18.353C188 51.47 160.18 68 132 68S76 51.47 76 31.077c0-9.37 5.875-15.002 14.96-18.353z" fill-opacity=".16" fill="#000" mask="url(#D)"/></g><g transform="translate(76 82)" fill="#000"><g transform="translate(2 52)"><defs><path d="M35.118 15.128C36.176 24.62 44.226 32 54 32c9.804 0 17.874-7.426 18.892-16.96.082-.767-.775-2.04-1.85-2.04H37.087c-1.08 0-2.075 1.178-1.97 2.128z" id="E"/></defs><mask id="F" fill="#fff"><use xlink:href="#E"/></mask><use fill-opacity=".7" xlink:href="#E"/><rect fill="#fff" mask="url(#F)" x="39" y="2" width="31" height="16" rx="5"/><g mask="url(#F)" fill="#ff4f6d"><circle cx="49" cy="35" r="11"/><circle cx="59" cy="35" r="11"/></g></g><g fill-opacity=".16"><path d="M44 48c0 4.418 5.373 8 12 8h0c6.627 0 12-3.582 12-8"/></g><g fill-opacity=".6"><circle cx="30" cy="30" r="6"/><circle cx="82" cy="30" r="6"/></g><g fill-opacity=".6" fill-rule="nonzero"><path d="M15.63 17.16c3.915-5.5 14.648-8.598 23.893-6.327a2 2 0 1 0 .954-3.885C29.74 4.3 17.312 7.887 12.37 14.84a2 2 0 0 0 3.26 2.317zm80.74 0c-3.915-5.5-14.648-8.598-23.893-6.327a2 2 0 1 1-.954-3.885C82.26 4.3 94.688 7.887 99.63 14.84a2 2 0 1 1-3.26 2.317z"/></g></g><defs><path id="G" d="M0 0h264v280H0z"/><path d="M180.15 39.92c-2.76-2.82-5.964-5.214-9.08-7.614l-2.06-1.595c-.153-.125-1.72-1.246-1.906-1.66-.45-.993-.2-.22-.127-1.404.08-1.498 3.133-5.73.854-6.7-1.003-.427-2.792.71-3.754 1.084a59.49 59.49 0 0 1-5.731 1.9c.932-1.857 2.71-5.574-.63-4.58-2.602.775-5.026 2.768-7.64 3.705.865-1.418 4.324-5.81 1.198-6.057-.973-.076-3.803 1.748-4.85 2.137-3.137 1.166-6.34 1.92-9.634 2.513-11.198 2.018-24.293 1.443-34.653 6.54-7.987 3.93-15.874 10.03-20.488 17.794-4.447 7.485-6.11 15.677-7.04 24.254-.683 6.295-.74 12.8-.42 19.12.104 2.07.337 11.61 3.344 8.72 1.498-1.44 1.487-7.253 1.864-9.22.75-3.915 1.474-7.848 2.726-11.638 2.206-6.68 4.81-13.793 10.305-18.393 3.527-2.952 6.004-6.94 9.38-9.92 1.516-1.337.36-1.198 2.797-1.023 1.638.118 3.283.163 4.924.206 3.796.1 7.598.073 11.395.087 7.647.028 15.258.136 22.897-.265 3.395-.178 6.8-.274 10.185-.588 1.89-.175 5.248-1.388 6.805-.46 1.425.848 2.905 3.615 3.928 4.748 2.417 2.678 5.3 4.724 8.126 6.92 5.894 4.58 8.87 10.33 10.66 17.488 1.783 7.13 1.283 13.745 3.49 20.762.388 1.234 1.416 3.36 2.682 1.454.235-.354.174-2.3.174-3.42 0-4.52 1.145-7.91 1.13-12.46-.056-13.832-.503-31.868-10.85-42.44z" id="H"/></defs><mask id="I" fill="#fff"><use xlink:href="#G"/></mask><g mask="url(#I)"><g transform="translate(-1)"><mask id="J" fill="#fff"><use xlink:href="#H"/></mask><use fill="#1f3140" xlink:href="#H"/><g mask="url(#J)" fill="#2c1b18"><path d="M0 0h264v280H0z"/></g><g transform="translate(62 85)"><defs><filter x="-0.8%" y="-2.4%" width="101.5%" height="109.8%" id="K"><feOffset dy="2" in="SourceAlpha"/><feColorMatrix values="0 0 0 0 0 0 0 0 0 0 0 0 0 0 0 0 0 0 0.2 0" result="B"/><feMerge><feMergeNode in="B"/><feMergeNode in="SourceGraphic"/></feMerge></filter></defs><g filter="url(#K)" transform="translate(6 7)" fill="#252c2f" fill-rule="nonzero"><path d="M34 41h-2.758C17.315 41 9 33.336 9 20.5 9 10.127 10.817 0 32.53 0h2.94C57.183 0 59 10.127 59 20.5 59 32.57 48.72 41 34 41zM32.385 6C13 6 13 12.84 13 21.502 13 28.572 16.116 37 30.97 37H34c12.365 0 21-6.373 21-15.498C55 12.84 55 6 35.615 6h-3.23z"/><path d="M96 41h-2.758C79.315 41 71 33.336 71 20.5 71 10.127 72.817 0 94.53 0h2.94C119.183 0 121 10.127 121 20.5 121 32.57 110.72 41 96 41zM94.385 6C75 6 75 12.84 75 21.502 75 28.572 78.12 37 92.97 37H96c12.365 0 21-6.373 21-15.498C117 12.84 117 6 97.615 6h-3.23z"/><path d="M2.955 5.772C3.646 5.096 11.2 0 32.5 0c17.85 0 21.63 1.853 27.35 4.652l.42.207c.398.14 2.43.83 4.8.907a17 17 0 0 0 4.563-.869C76.17 1.722 82.56 0 97.5 0c21.3 0 28.854 5.096 29.545 5.772 1.634 0 2.955 1.3 2.955 2.886v2.886c0 1.596-1.32 2.886-2.955 2.886 0 0-6.9 0-6.9 2.886s-1.962-4.176-1.962-5.772v-2.81c-3.603-1.38-10.053-3.946-20.682-3.946-11.842 0-17.74 2.1-22.798 4.185l.057.136-.002 1.986-2.217 5.35-2.74-1.083c-.245-.097-.772-.27-1.504-.45-2.04-.503-4.137-.656-5.992-.276-.68.14-1.312.35-1.89.632l-2.642 1.29-2.644-5.162.117-2.294.08-.195c-4.363-2.033-8.386-4.12-22.825-4.12-10.628 0-17.078 2.566-20.682 3.945v2.812c0 1.596-2.955 8.657-2.955 5.772s-5.91-2.886-5.91-2.886C1.324 14.43 0 13.14 0 11.543V8.657c0-1.596 1.324-2.886 2.955-2.886z"/></g></g></g></g></g></svg>